<svg xmlns="http://www.w3.org/2000/svg" viewBox="0 0 100 100">
  <circle cx="50" cy="50" r="48" fill="none" stroke="#0A1F44" stroke-width="2"/>
  <circle cx="50" cy="50" r="42" fill="none" stroke="#0A1F44" stroke-width="0.5"/>
  <circle cx="50" cy="50" r="8" fill="#0A1F44"/>
  <g stroke="#0A1F44" stroke-width="1.5">
    <line x1="50" y1="50" x2="50" y2="8"/>
    <line x1="50" y1="50" x2="50" y2="92"/>
    <line x1="50" y1="50" x2="8" y2="50"/>
    <line x1="50" y1="50" x2="92" y2="50"/>
    
    <line x1="50" y1="50" x2="79.7" y2="20.3"/>
    <line x1="50" y1="50" x2="20.3" y2="79.7"/>
    <line x1="50" y1="50" x2="20.3" y2="20.3"/>
    <line x1="50" y1="50" x2="79.7" y2="79.7"/>
    
    <line x1="50" y1="50" x2="65.4" y2="12.4"/>
    <line x1="50" y1="50" x2="34.6" y2="87.6"/>
    <line x1="50" y1="50" x2="87.6" y2="34.6"/>
    <line x1="50" y1="50" x2="12.4" y2="65.4"/>
    
    <line x1="50" y1="50" x2="34.6" y2="12.4"/>
    <line x1="50" y1="50" x2="65.4" y2="87.6"/>
    <line x1="50" y1="50" x2="12.4" y2="34.6"/>
    <line x1="50" y1="50" x2="87.6" y2="65.4"/>
    
    <line x1="50" y1="50" x2="81.6" y2="31.4"/>
    <line x1="50" y1="50" x2="18.4" y2="68.6"/>
    <line x1="50" y1="50" x2="68.6" y2="18.4"/>
    <line x1="50" y1="50" x2="31.4" y2="81.6"/>
    
    <line x1="50" y1="50" x2="81.6" y2="68.6"/>
    <line x1="50" y1="50" x2="18.4" y2="31.4"/>
    <line x1="50" y1="50" x2="31.4" y2="18.4"/>
    <line x1="50" y1="50" x2="68.6" y2="81.6"/>
  </g>
  <circle cx="50" cy="50" r="45" fill="none" stroke="#FF9933" stroke-width="1" stroke-dasharray="0.5 5.38" stroke-linecap="round"/>
</svg>
